<svg xmlns="http://www.w3.org/2000/svg" width="48" height="48" viewBox="0 0 48 48">
  <defs>
    <linearGradient id="gear_bg" x1="0%" y1="0%" x2="100%" y2="100%">
      <stop offset="0%" style="stop-color:#ff6b6b;stop-opacity:1" />
      <stop offset="50%" style="stop-color:#ee5a24;stop-opacity:1" />
      <stop offset="100%" style="stop-color:#1a1a2e;stop-opacity:1" />
    </linearGradient>
    <radialGradient id="center" cx="50%" cy="50%" r="50%">
      <stop offset="0%" style="stop-color:#00ffff;stop-opacity:1" />
      <stop offset="100%" style="stop-color:#0099cc;stop-opacity:1" />
    </radialGradient>
  </defs>
  
  <!-- 外齿轮 -->
  <path d="M24 4 L28 8 L32 4 L36 8 L40 4 L44 8 L44 12 L40 16 L44 20 L44 24 L40 28 L44 32 L44 36 L40 40 L44 44 L40 44 L36 40 L32 44 L28 40 L24 44 L20 40 L16 44 L12 40 L8 44 L4 40 L4 36 L8 32 L4 28 L4 24 L8 20 L4 16 L4 12 L8 8 L4 4 L8 4 L12 8 L16 4 L20 8 Z" fill="url(#gear_bg)" stroke="#00ffff" stroke-width="1"/>
  
  <!-- 内圆 -->
  <circle cx="24" cy="24" r="12" fill="url(#center)" stroke="#ff6b6b" stroke-width="2"/>
  
  <!-- 中心孔 -->
  <circle cx="24" cy="24" r="6" fill="#1a1a2e" stroke="#00ffff" stroke-width="1"/>
  
  <!-- 装饰线条 -->
  <line x1="18" y1="24" x2="30" y2="24" stroke="#00ffff" stroke-width="2"/>
  <line x1="24" y1="18" x2="24" y2="30" stroke="#00ffff" stroke-width="2"/>
  
  <!-- 发光效果 -->
  <circle cx="24" cy="24" r="22" fill="none" stroke="#ff6b6b" stroke-width="0.5" opacity="0.4"/>
  <circle cx="24" cy="24" r="18" fill="none" stroke="#00ffff" stroke-width="0.5" opacity="0.6"/>
</svg>