
<svg xmlns="http://www.w3.org/2000/svg" width="16" height="16" viewBox="0 0 16 16">
  <defs>
    <linearGradient id="trash_bg" x1="0%" y1="0%" x2="100%" y2="100%">
      <stop offset="0%" style="stop-color:#ff6b6b;stop-opacity:1" />
      <stop offset="100%" style="stop-color:#ee5a24;stop-opacity:1" />
    </linearGradient>
    <linearGradient id="lid_bg" x1="0%" y1="0%" x2="100%" y2="100%">
      <stop offset="0%" style="stop-color:#00ffff;stop-opacity:1" />
      <stop offset="100%" style="stop-color:#0099cc;stop-opacity:1" />
    </linearGradient>
  </defs>
  
  <!-- 垃圾桶主体 -->
  <path d="M5 4v9a2 2 0 0 0 2 2h6a2 2 0 0 0 2-2V4H5zm1 2v6a.5.5 0 0 0 1 0V6a.5.5 0 0 0-1 0zm3 0v6a.5.5 0 0 0 1 0V6a.5.5 0 0 0-1 0zm3 0v6a.5.5 0 0 0 1 0V6a.5.5 0 0 0-1 0z" fill="url(#trash_bg)" stroke="#00ffff" stroke-width="0.5"/>
  
  <!-- 垃圾桶盖子 -->
  <path d="M2.5 3V2a1 1 0 0 1 1-1H6a1 1 0 0 1 1-1h2a1 1 0 0 1 1 1h2.5a1 1 0 0 1 1 1v1h-11z" fill="url(#lid_bg)" stroke="#ff6b6b" stroke-width="0.5"/>
  
  <!-- 删除线条 -->
  <rect x="6.5" y="6" width="0.5" height="6" fill="#00ffff"/>
  <rect x="8" y="6" width="0.5" height="6" fill="#00ffff"/>
  <rect x="9.5" y="6" width="0.5" height="6" fill="#00ffff"/>
  
  <!-- 发光效果 -->
  <path d="M5 4v9a2 2 0 0 0 2 2h6a2 2 0 0 0 2-2V4H5z" fill="none" stroke="#ff6b6b" stroke-width="0.3" opacity="0.6"/>
  <path d="M2.5 3V2a1 1 0 0 1 1-1H6a1 1 0 0 1 1-1h2a1 1 0 0 1 1 1h2.5a1 1 0 0 1 1 1v1h-11z" fill="none" stroke="#00ffff" stroke-width="0.3" opacity="0.6"/>
</svg>
    